<?xml version="1.0" encoding="utf-8"?>
<!-- Generator: Adobe Illustrator 18.1.0, SVG Export Plug-In . SVG Version: 6.00 Build 0)  -->
<svg version="1.1" id="Layer_1" xmlns="http://www.w3.org/2000/svg" xmlns:xlink="http://www.w3.org/1999/xlink" x="0px" y="0px"
	 width="150.5px" height="20.7px" viewBox="24.3 90.8 150.5 20.7" enable-background="new 24.3 90.8 150.5 20.7"
	 xml:space="preserve">
<g>
	<g>
		<g>
			<defs>
				<path id="SVGID_1_" d="M26.9,94.2h-2.3v-2.6h7.5v2.6h-2.3v9.5h-2.9V94.2z M33,91.6h2.9v4.7h2.5v-4.7h2.9v12.2h-2.9V99h-2.5v4.8
					H33V91.6z M42.7,91.6h6.8v2.6h-3.9v2.2h3.5v2.5h-3.5v2.2h4v2.6h-6.9C42.7,103.7,42.7,91.6,42.7,91.6z M53.7,91.6h3.7
					c1.4,0,2.6,0.4,3.3,1.1c0.7,0.7,1,1.6,1,2.9v0.1c0,1.8-0.7,2.8-1.8,3.4l2.1,4.6h-3.2l-1.6-3.9h-0.7v3.9h-2.9V91.6H53.7z
					 M57.3,97.5c1,0,1.5-0.6,1.5-1.7v-0.1c0-1.1-0.6-1.7-1.6-1.7h-0.7v3.4L57.3,97.5L57.3,97.5z M62.8,91.6h6.8v2.6h-3.9v2.2h3.5
					v2.5h-3.5v2.2h4v2.6h-6.9C62.8,103.7,62.8,91.6,62.8,91.6z M70.8,91.6h6.7v2.6h-3.8v2.3h3.4v2.6h-3.4v4.7h-2.9
					C70.8,103.8,70.8,91.6,70.8,91.6z M78.4,99.5v-7.9h2.9v8.1c0,1.1,0.5,1.7,1.3,1.7s1.3-0.5,1.3-1.7v-8.1h2.9v7.9
					c0,3.1-1.7,4.5-4.2,4.5C80.1,104,78.4,102.6,78.4,99.5z M87.8,97.9v-0.5c0-3.8,2.2-6,5.1-6c1.3,0,2.3,0.4,3.3,1.2l-1.5,2.3
					c-0.3-0.4-0.9-0.8-1.7-0.8c-1.3,0-2.3,1.2-2.3,3.4v0.3c0,2.5,1,3.5,2.2,3.5c0.3,0,0.6-0.1,0.8-0.2v-2.2h-1.4v-2.4h4.1v6.2
					c-1,0.6-2.1,1.1-3.5,1.1C89.9,103.9,87.8,101.9,87.8,97.9z M97.5,91.6h6.8v2.6h-3.9v2.2h3.5v2.5h-3.5v2.2h4v2.6h-6.9V91.6z
					 M105.5,91.6h6.8v2.6h-3.9v2.2h3.5v2.5h-3.5v2.2h4v2.6h-6.9V91.6z M116.6,91.6h3.4c2.6,0,4.4,1.4,4.4,4.2v0.1
					c0,2.9-2,4.2-4.3,4.3h-0.6v3.6h-2.9V91.6z M119.9,97.7c1,0,1.6-0.7,1.6-1.8v-0.1c0-1.2-0.6-1.8-1.6-1.8h-0.5v3.7H119.9z
					 M125.3,91.6h3.7c1.4,0,2.6,0.4,3.3,1.1c0.7,0.7,1,1.6,1,2.9v0.1c0,1.8-0.7,2.8-1.8,3.4l2.1,4.6h-3.2l-1.6-3.9h-0.7v3.9h-2.9
					L125.3,91.6L125.3,91.6z M128.9,97.5c1,0,1.5-0.6,1.5-1.7v-0.1c0-1.1-0.6-1.7-1.6-1.7h-0.7v3.4L128.9,97.5L128.9,97.5z
					 M134.2,97.9v-0.5c0-3.8,1.9-6.1,4.6-6.1s4.6,2.2,4.6,6v0.5c0,3.8-1.9,6.1-4.6,6.1S134.2,101.7,134.2,97.9z M140.4,97.9v-0.4
					c0-2.5-0.7-3.5-1.7-3.5s-1.7,1-1.7,3.5v0.4c0,2.5,0.7,3.5,1.7,3.5C139.8,101.4,140.4,100.3,140.4,97.9z M143.4,102.8l1.3-2.2
					c0.3,0.3,0.7,0.6,1.2,0.6c0.6,0,1-0.4,1-1.3v-8.3h2.9v8.5c0,1.3-0.3,2.2-1,2.9c-0.6,0.6-1.5,0.9-2.5,0.9
					C145,103.9,144,103.4,143.4,102.8z M151,91.6h6.8v2.6h-3.9v2.2h3.5v2.5h-3.5v2.2h4v2.6H151V91.6z M158.5,97.9v-0.4
					c0-4,2.1-6.1,4.8-6.1c1.3,0,2.3,0.5,3.1,1.2l-1.5,2.3c-0.4-0.4-0.9-0.8-1.5-0.8c-1.1,0-2,1.1-2,3.5v0.1c0,2.5,1,3.5,2,3.5
					c0.7,0,1.2-0.4,1.6-0.9l1.4,2.2c-0.8,0.8-1.9,1.4-3.3,1.4C160.5,103.9,158.5,101.9,158.5,97.9z M169.2,94.2h-2.3v-2.6h7.5v2.6
					H172v9.5h-2.9L169.2,94.2L169.2,94.2z"/>
			</defs>
			<clipPath id="SVGID_2_">
				<use xlink:href="#SVGID_1_"  overflow="visible"/>
			</clipPath>
			
				<linearGradient id="SVGID_3_" gradientUnits="userSpaceOnUse" x1="179.6" y1="102.3" x2="19.9" y2="102.3" gradientTransform="matrix(1 0 0 -1 6.357823e-07 202.2)">
				<stop  offset="0" style="stop-color:#00D7ED"/>
				<stop  offset="0.1529" style="stop-color:#3AB0C8"/>
				<stop  offset="0.3164" style="stop-color:#718AA4"/>
				<stop  offset="0.476" style="stop-color:#9F6B87"/>
				<stop  offset="0.6277" style="stop-color:#C35370"/>
				<stop  offset="0.7695" style="stop-color:#DC425F"/>
				<stop  offset="0.8976" style="stop-color:#EC3855"/>
				<stop  offset="1" style="stop-color:#F13452"/>
			</linearGradient>
			<rect x="19.9" y="84.5" clip-path="url(#SVGID_2_)" fill="url(#SVGID_3_)" width="159.7" height="30.8"/>
		</g>
	</g>
	
		<linearGradient id="SVGID_4_" gradientUnits="userSpaceOnUse" x1="-4546.5" y1="92.1" x2="-4396.5" y2="92.1" gradientTransform="matrix(-1 0 0 -1 -4372 202.2)">
		<stop  offset="0" style="stop-color:#00D7ED"/>
		<stop  offset="0.1529" style="stop-color:#3AB0C8"/>
		<stop  offset="0.3164" style="stop-color:#718AA4"/>
		<stop  offset="0.476" style="stop-color:#9F6B87"/>
		<stop  offset="0.6277" style="stop-color:#C35370"/>
		<stop  offset="0.7695" style="stop-color:#DC425F"/>
		<stop  offset="0.8976" style="stop-color:#EC3855"/>
		<stop  offset="1" style="stop-color:#F13452"/>
	</linearGradient>
	<rect x="24.5" y="109" fill="url(#SVGID_4_)" width="150" height="2.2"/>
</g>
</svg>
