<?xml version="1.0" encoding="utf-8"?>
<!-- Generator: Adobe Illustrator 18.1.0, SVG Export Plug-In . SVG Version: 6.00 Build 0)  -->
<svg version="1.1" id="Layer_1" xmlns="http://www.w3.org/2000/svg" xmlns:xlink="http://www.w3.org/1999/xlink" x="0px" y="0px"
	 width="85px" height="20.1px" viewBox="0 0 85 20.1" enable-background="new 0 0 85 20.1" xml:space="preserve">
<g>
	<g>
		<path fill-rule="evenodd" clip-rule="evenodd" fill="#6D7988" d="M12.3,13.7c0.2,0,0.2-0.1,0.2-0.4c0-0.3,0-1,0-1.2
			c0-0.3,0-0.3,0.1-0.3c0.5,0,0.6,0,0.6-0.5V6.7c0-1.2-0.9-1-1.1-1.5c-0.4-0.6,0.7-0.6,0.3-1.9c-0.1-0.3-0.3-0.5-0.8-0.5
			c-0.5,0-0.7,0.2-0.8,0.5c-0.4,1.3,0.6,1.3,0.3,1.9C10.9,5.6,10,5.4,10,6.7v4.6c0,0.5,0.1,0.5,0.6,0.5c0.1,0,0.1,0.1,0.1,0.3
			c0,0.3,0,1,0,1.2c0,0.3,0,0.4,0.2,0.4C11.1,13.7,12.2,13.7,12.3,13.7L12.3,13.7z"/>
		<path fill-rule="evenodd" clip-rule="evenodd" fill="#6D7988" d="M8.3,3.8C7.9,4.2,7.1,5.4,7.6,6.3c0.9,0.4,0.9-3,2-2.9
			c0.6,0.5-0.2,2.1-0.4,2.8C9,7,8.7,8.8,8.2,9.7c-0.5,0.7-0.1,3-0.3,3.8c-0.4,0.4-1.5,0.1-1.9,0c0-0.9-0.1-1.6-0.3-3
			c0-0.3-0.3-4.7-0.1-5.3C6.2,4.1,9,2,9.3,1.6c0.3-0.4,1.5-1.6,2-1.6c0.3,0.2,0.1,0.7,0.1,0.9C10.9,2,9,3.1,8.3,3.8L8.3,3.8z"/>
		<path fill-rule="evenodd" clip-rule="evenodd" fill="#6D7988" d="M15.1,3.8c0.4,0.5,1.1,1.6,0.7,2.5c-1,0.4-0.9-3-2.1-2.9
			c-0.6,0.5,0.2,2.1,0.4,2.8c0.3,0.9,0.5,2.7,1.1,3.5c0.5,0.7,0.1,3,0.2,3.8c0.4,0.4,1.5,0.1,1.9,0c0-0.9,0.1-1.6,0.2-3
			c0-0.3,0.3-4.7,0.1-5.3C17.2,4.1,14.4,2,14,1.6c-0.3-0.4-1.5-1.6-2-1.6c-0.3,0.2-0.1,0.7-0.1,0.9C12.5,2,14.4,3.1,15.1,3.8
			L15.1,3.8z"/>
		<path fill-rule="evenodd" clip-rule="evenodd" fill="#6D7988" d="M4.3,2.3C4,2.5,3.5,2.7,3.1,3.2C3,2.9,3.3,2.2,3.8,1.8
			c0.3-0.3,1-0.7,1.2-0.8C5.1,1.4,4.6,1.9,4.3,2.3L4.3,2.3z"/>
		<path fill-rule="evenodd" clip-rule="evenodd" fill="#6D7988" d="M3.5,4.1C3.1,4.5,2.6,4.6,2.1,5.3C1.8,4.5,1.9,3.7,2,3.2
			c0.2-0.7,0.5-1.4,1.1-1.6C3,2,2.8,2.5,2.7,3.2c-0.2,1-0.4,1-0.3,1.1c0.1,0,0.4-0.5,0.8-0.9c0.5-0.5,1-0.6,1.4-0.8
			C4.5,2.8,4.2,3.4,3.5,4.1L3.5,4.1z"/>
		<path fill-rule="evenodd" clip-rule="evenodd" fill="#6D7988" d="M1.5,8.1c-0.6-1-0.6-1.8-0.7-2.6c0-0.6,0.3-2,0.8-2.2
			C1.4,4.6,1.7,4.7,1.6,5.7c0,0.1-0.1,1.1-0.1,1.2c0.2,0,0-1,2-2.4c-0.4,0.8-0.2,1-1,2C1.5,7.4,1.4,8.3,1.5,8.1L1.5,8.1z"/>
		<path fill-rule="evenodd" clip-rule="evenodd" fill="#6D7988" d="M2.3,9.1C1.8,9.7,1.9,10,1.8,10.3c-1-0.6-2.1-2.9-1.7-4
			C0.4,7.1,0.7,7.3,1,8c0.5,1.1,0.4,1.4,0.7,1.7C1.6,9.1,1.8,8.5,2,8c0.3-0.4,0.5-1,0.7-1.2C2.9,7.6,2.7,8.3,2.3,9.1L2.3,9.1z"/>
		<path fill-rule="evenodd" clip-rule="evenodd" fill="#6D7988" d="M3.2,11c0,0.9-0.2,1.3-0.2,1.9c-1.7-0.6-2.6-2.5-2.6-3.5
			c0.5,1.2,1.3,1.2,2.3,2.9c0.1-0.6-0.2-0.2-0.2-1.4c0-1.3,0.3-1.3,0.3-2.1C3,9.2,3.2,10.6,3.2,11L3.2,11z"/>
		<path fill-rule="evenodd" clip-rule="evenodd" fill="#6D7988" d="M4.6,13.6c0.1,0.7,0.2,1.4,0.3,2c-1-0.4-1.2-0.1-2.4-0.8
			C1.9,14.4,1,13.2,1,12.3C2.2,13.6,2.4,13.5,3,14c0.5,0.4,0.9,1,1.3,1c0-0.3-0.9-1.1-0.7-3.3C3.8,11.9,4.4,12.9,4.6,13.6L4.6,13.6z
			"/>
		<path fill-rule="evenodd" clip-rule="evenodd" fill="#6D7988" d="M6.6,15.2c0.3,0.4,0.2,0.6,1,1.5c-0.2,0.1-1.3,0.4-2,0.4
			c-0.5,0-2.2-0.5-2.8-1.7c1,0.5,1,0.4,2.4,0.7c1,0.2,1.6,0.5,1.9,0.5c-0.1-0.1-0.8-0.4-1.3-1.1c-0.5-0.7-0.4-1.5-0.8-2
			C5.1,13.5,6.3,14.9,6.6,15.2L6.6,15.2z"/>
		<path fill-rule="evenodd" clip-rule="evenodd" fill="#6D7988" d="M19,2.3c0.2,0.2,0.8,0.4,1.2,0.9c0.2-0.3-0.2-0.9-0.7-1.3
			c-0.3-0.3-1-0.7-1.2-0.8C18.2,1.4,18.7,1.9,19,2.3L19,2.3z"/>
		<path fill-rule="evenodd" clip-rule="evenodd" fill="#6D7988" d="M19.8,4.1c0.4,0.4,0.9,0.6,1.4,1.3c0.2-0.9,0.2-1.6,0.1-2.1
			c-0.2-0.7-0.5-1.4-1.1-1.6c0.1,0.4,0.3,0.9,0.3,1.6c0.2,1,0.4,1,0.3,1.1c-0.1,0-0.4-0.5-0.8-0.9c-0.5-0.5-1-0.6-1.4-0.8
			C18.7,2.8,19.1,3.4,19.8,4.1L19.8,4.1z"/>
		<path fill-rule="evenodd" clip-rule="evenodd" fill="#6D7988" d="M21.8,8.1c0.6-1,0.6-1.8,0.7-2.6c0-0.6-0.3-2-0.7-2.2
			c0.1,1.2-0.2,1.4-0.1,2.4c0,0.1,0.1,1.1,0.1,1.2c-0.2,0,0-1-2-2.4c0.4,0.8,0.2,1,1,2C21.7,7.4,21.9,8.3,21.8,8.1L21.8,8.1z"/>
		<path fill-rule="evenodd" clip-rule="evenodd" fill="#6D7988" d="M21,9.1c0.4,0.6,0.3,0.9,0.4,1.2c1-0.6,2.1-2.9,1.7-4
			c-0.2,0.9-0.6,1.1-0.9,1.8c-0.5,1.1-0.4,1.4-0.7,1.7c0.1-0.6-0.1-1.2-0.3-1.7c-0.3-0.4-0.5-1-0.7-1.2C20.4,7.6,20.5,8.3,21,9.1
			L21,9.1z"/>
		<path fill-rule="evenodd" clip-rule="evenodd" fill="#6D7988" d="M20.1,11c0,0.9,0.2,1.3,0.2,1.9c1.7-0.6,2.6-2.5,2.6-3.5
			c-0.5,1.2-1.3,1.2-2.3,2.9c-0.1-0.6,0.2-0.2,0.2-1.4c0-1.3-0.3-1.3-0.3-2.1C20.2,9.2,20.1,10.6,20.1,11L20.1,11z"/>
		<path fill-rule="evenodd" clip-rule="evenodd" fill="#6D7988" d="M18.7,13.6c-0.1,0.7-0.2,1.4-0.3,2c1-0.4,1.2-0.1,2.4-0.8
			c0.5-0.3,1.5-1.5,1.5-2.4c-1.2,1.3-1.4,1.1-1.9,1.6c-0.5,0.4-1,1-1.3,1c0-0.3,0.9-1.1,0.8-3.3C19.5,11.9,18.8,12.9,18.7,13.6
			L18.7,13.6z"/>
		<path fill-rule="evenodd" clip-rule="evenodd" fill="#6D7988" d="M16.7,15.2c-0.3,0.4-0.2,0.6-1,1.5c0.2,0.1,1.3,0.4,2.1,0.4
			c0.5,0,2.2-0.5,2.8-1.7c-1,0.5-1,0.4-2.4,0.7c-1,0.2-1.6,0.5-1.9,0.5c0.1-0.1,0.8-0.4,1.3-1.1c0.5-0.7,0.4-1.5,0.9-2
			C18.2,13.5,17,14.9,16.7,15.2L16.7,15.2z"/>
		<path fill-rule="evenodd" clip-rule="evenodd" fill="#6D7988" d="M9.2,19.3l-0.3-0.1c0,0,1.8-2.3,5-2.1c3.2,0.2,2.9,0.9,4.6,0.8
			c0.2,0-0.1,0.2-0.1,0.2s-1.7,0.6-3.7-0.1C12.6,17.3,11.3,16.9,9.2,19.3L9.2,19.3z"/>
		<path fill-rule="evenodd" clip-rule="evenodd" fill="#6D7988" d="M14.2,19.3l0.3-0.1c0,0-1.8-2.3-5-2.1c-3.2,0.2-3,0.9-4.7,0.8
			c-0.2,0,0.1,0.2,0.1,0.2s1.7,0.6,3.7-0.1C10.7,17.3,12,16.9,14.2,19.3L14.2,19.3z"/>
		<polygon fill-rule="evenodd" clip-rule="evenodd" fill="#6D7988" points="28.7,16.1 27.5,16.1 27.5,15.4 30.6,15.4 30.6,16.1 
			29.5,16.1 29.5,19.1 28.7,19.1 28.7,16.1 		"/>
		<path fill-rule="evenodd" clip-rule="evenodd" fill="#6D7988" d="M30.8,15.4h0.7v1.4h0c0.2-0.3,0.5-0.4,0.8-0.4c0.8,0,1,0.4,1,1.1
			v1.6h-0.7v-1.5c0-0.4-0.1-0.7-0.5-0.7c-0.4,0-0.6,0.2-0.6,0.8v1.4h-0.7V15.4L30.8,15.4z"/>
		<path fill-rule="evenodd" clip-rule="evenodd" fill="#6D7988" d="M34.4,17.9c0,0.5,0.2,0.7,0.7,0.7c0.3,0,0.5-0.2,0.6-0.3h0.6
			c-0.2,0.6-0.6,0.9-1.2,0.9c-0.8,0-1.4-0.6-1.4-1.4c0-0.8,0.6-1.4,1.4-1.4c0.9,0,1.3,0.8,1.3,1.6H34.4L34.4,17.9z M35.6,17.5
			c-0.1-0.4-0.2-0.6-0.6-0.6c-0.5,0-0.6,0.4-0.6,0.6H35.6L35.6,17.5z"/>
		<path fill-rule="evenodd" clip-rule="evenodd" fill="#6D7988" d="M41,17.7c0,1-0.6,1.5-1.6,1.5c-1,0-1.6-0.5-1.6-1.5v-2.3h0.8v2.3
			c0,0.4,0.1,0.8,0.8,0.8c0.6,0,0.8-0.3,0.8-0.8v-2.3H41V17.7L41,17.7z"/>
		<polygon fill-rule="evenodd" clip-rule="evenodd" fill="#6D7988" points="41.5,15.4 42.4,15.4 43.9,17.9 43.9,17.9 43.9,15.4 
			44.7,15.4 44.7,19.1 43.9,19.1 42.3,16.6 42.3,16.6 42.3,19.1 41.5,19.1 41.5,15.4 		"/>
		<path fill-rule="evenodd" clip-rule="evenodd" fill="#6D7988" d="M47.1,16H48c0.4,0,0.6,0.2,0.6,0.5c0,0.4-0.2,0.5-0.6,0.5h-0.9
			V16L47.1,16z M46.3,19.1h0.8v-1.4h0.8c0.4,0,0.6,0.2,0.6,0.6c0,0.3,0,0.7,0.1,0.9h0.8c-0.1-0.2-0.1-0.6-0.2-0.9
			c0-0.4-0.1-0.8-0.5-0.9v0c0.4-0.2,0.6-0.5,0.6-0.9c0-0.6-0.4-1-1.1-1h-2V19.1L46.3,19.1z"/>
		<path fill-rule="evenodd" clip-rule="evenodd" fill="#6D7988" d="M50.5,17.5c0-0.2,0.1-0.6,0.6-0.6c0.4,0,0.5,0.2,0.6,0.6H50.5
			L50.5,17.5z M52.4,17.9c0.1-0.8-0.4-1.6-1.3-1.6c-0.8,0-1.4,0.6-1.4,1.4c0,0.8,0.5,1.4,1.4,1.4c0.6,0,1-0.3,1.3-0.9h-0.6
			c0,0.2-0.3,0.3-0.6,0.3c-0.4,0-0.6-0.2-0.7-0.7H52.4L52.4,17.9z"/>
		<path fill-rule="evenodd" clip-rule="evenodd" fill="#6D7988" d="M52.9,16.9h-0.4v-0.5h0.4v-0.2c0-0.5,0.3-0.8,0.9-0.8
			c0.1,0,0.3,0,0.4,0V16c-0.1,0-0.2,0-0.3,0c-0.2,0-0.3,0.1-0.3,0.3v0.2h0.5v0.5h-0.5v2.2h-0.7V16.9L52.9,16.9z"/>
		<path fill-rule="evenodd" clip-rule="evenodd" fill="#6D7988" d="M56.9,19.1h-0.7v-0.4h0c-0.2,0.3-0.5,0.4-0.8,0.4
			c-0.8,0-1-0.4-1-1.1v-1.6h0.7v1.5c0,0.4,0.1,0.7,0.5,0.7c0.4,0,0.6-0.2,0.6-0.8v-1.4h0.7V19.1L56.9,19.1z"/>
		<path fill-rule="evenodd" clip-rule="evenodd" fill="#6D7988" d="M58.6,18.5c-0.4,0-0.6-0.4-0.6-0.8c0-0.4,0.2-0.8,0.6-0.8
			c0.5,0,0.6,0.4,0.6,0.8C59.2,18.1,59,18.5,58.6,18.5L58.6,18.5z M59.9,16.4h-0.7v0.4h0c-0.2-0.3-0.4-0.4-0.8-0.4
			c-0.7,0-1.1,0.6-1.1,1.3c0,0.7,0.3,1.3,1.1,1.3c0.3,0,0.6-0.1,0.8-0.4h0V19c0,0.4-0.2,0.7-0.6,0.7c-0.3,0-0.5-0.1-0.5-0.4h-0.7
			c0,0.6,0.7,0.9,1.2,0.9c1.2,0,1.4-0.7,1.4-1.2V16.4L59.9,16.4z"/>
		<path fill-rule="evenodd" clip-rule="evenodd" fill="#6D7988" d="M61,17.5c0-0.2,0.1-0.6,0.6-0.6c0.4,0,0.5,0.2,0.6,0.6H61
			L61,17.5z M62.9,17.9c0.1-0.8-0.4-1.6-1.3-1.6c-0.8,0-1.4,0.6-1.4,1.4c0,0.8,0.5,1.4,1.4,1.4c0.6,0,1-0.3,1.2-0.9h-0.6
			c0,0.2-0.3,0.3-0.6,0.3c-0.4,0-0.6-0.2-0.7-0.7H62.9L62.9,17.9z"/>
		<path fill-rule="evenodd" clip-rule="evenodd" fill="#6D7988" d="M63.9,17.5c0-0.2,0.1-0.6,0.6-0.6c0.4,0,0.5,0.2,0.6,0.6H63.9
			L63.9,17.5z M65.8,17.9c0.1-0.8-0.4-1.6-1.3-1.6c-0.8,0-1.4,0.6-1.4,1.4c0,0.8,0.5,1.4,1.4,1.4c0.6,0,1-0.3,1.3-0.9h-0.6
			c0,0.2-0.3,0.3-0.6,0.3c-0.4,0-0.6-0.2-0.7-0.7H65.8L65.8,17.9z"/>
		<path fill-rule="evenodd" clip-rule="evenodd" fill="#6D7988" d="M68.8,16.3L68.8,16.3l0.5,1.4h-1L68.8,16.3L68.8,16.3z M67,19.1
			h0.8l0.3-0.8h1.4l0.3,0.8h0.8l-1.4-3.7h-0.8L67,19.1L67,19.1z"/>
		<path fill-rule="evenodd" clip-rule="evenodd" fill="#6D7988" d="M71.9,18.5c-0.4,0-0.6-0.4-0.6-0.8c0-0.4,0.2-0.8,0.6-0.8
			c0.5,0,0.6,0.4,0.6,0.8C72.6,18.1,72.4,18.5,71.9,18.5L71.9,18.5z M73.3,16.4h-0.7v0.4h0c-0.2-0.3-0.4-0.4-0.8-0.4
			c-0.7,0-1.1,0.6-1.1,1.3c0,0.7,0.3,1.3,1.1,1.3c0.3,0,0.6-0.1,0.8-0.4h0V19c0,0.4-0.2,0.7-0.6,0.7c-0.3,0-0.5-0.1-0.5-0.4h-0.7
			c0,0.6,0.7,0.9,1.2,0.9c1.2,0,1.4-0.7,1.4-1.2V16.4L73.3,16.4z"/>
		<path fill-rule="evenodd" clip-rule="evenodd" fill="#6D7988" d="M74.4,17.5c0-0.2,0.1-0.6,0.6-0.6c0.4,0,0.5,0.2,0.6,0.6H74.4
			L74.4,17.5z M76.3,17.9c0.1-0.8-0.4-1.6-1.3-1.6c-0.8,0-1.4,0.6-1.4,1.4c0,0.8,0.5,1.4,1.4,1.4c0.6,0,1-0.3,1.2-0.9h-0.6
			c0,0.2-0.3,0.3-0.6,0.3c-0.4,0-0.6-0.2-0.7-0.7H76.3L76.3,17.9z"/>
		<path fill-rule="evenodd" clip-rule="evenodd" fill="#6D7988" d="M76.6,16.4h0.7v0.4h0c0.2-0.3,0.5-0.4,0.8-0.4c0.8,0,1,0.4,1,1.1
			v1.6h-0.7v-1.5c0-0.4-0.1-0.7-0.5-0.7c-0.4,0-0.6,0.2-0.6,0.8v1.4h-0.7V16.4L76.6,16.4z"/>
		<path fill-rule="evenodd" clip-rule="evenodd" fill="#6D7988" d="M81.4,17.4c0-0.3-0.2-0.5-0.5-0.5c-0.5,0-0.6,0.5-0.6,0.9
			c0,0.4,0.1,0.8,0.6,0.8c0.3,0,0.5-0.2,0.6-0.5h0.7c-0.1,0.7-0.6,1.1-1.3,1.1c-0.8,0-1.3-0.6-1.3-1.4c0-0.8,0.5-1.4,1.4-1.4
			c0.6,0,1.2,0.3,1.3,1H81.4L81.4,17.4z"/>
		<path fill-rule="evenodd" clip-rule="evenodd" fill="#6D7988" d="M83.7,19.4c-0.2,0.4-0.4,0.6-0.9,0.6c-0.1,0-0.3,0-0.4,0v-0.6
			c0.1,0,0.3,0,0.4,0c0.3,0,0.3-0.3,0.3-0.5l-0.9-2.5h0.8l0.6,1.8h0l0.6-1.8h0.8L83.7,19.4L83.7,19.4z"/>
		<path fill-rule="evenodd" clip-rule="evenodd" fill="#6D7988" d="M37.5,9.4c0,3-1.6,4.5-5,4.5c-3.3,0-5-1.5-5-4.5V2.7h3.4v5.9
			c0,1.1,0,2.5,1.6,2.5c1.6,0,1.6-1.4,1.6-2.5V2.7h3.4V9.4L37.5,9.4z"/>
		<polygon fill-rule="evenodd" clip-rule="evenodd" fill="#6D7988" points="39.5,2.7 43,2.7 46.2,8.6 46.2,8.6 46.2,2.7 49.4,2.7 
			49.4,13.6 46.1,13.6 42.8,7.7 42.7,7.7 42.7,13.6 39.5,13.6 39.5,2.7 		"/>
		<polygon fill-rule="evenodd" clip-rule="evenodd" fill="#6D7988" points="51.4,2.7 54.8,2.7 54.8,6.5 58,6.5 58,2.7 61.3,2.7 
			61.3,13.6 58,13.6 58,9.3 54.8,9.3 54.8,13.6 51.4,13.6 51.4,2.7 		"/>
		<path fill-rule="evenodd" clip-rule="evenodd" fill="#6D7988" d="M69.9,6.8c-0.1-0.4-0.4-1.6-1.8-1.6c-1.6,0-2.1,1.5-2.1,3
			c0,1.5,0.5,3,2.1,3c1.1,0,1.6-0.8,1.8-1.8h3.3c0,2.2-1.8,4.5-5,4.5c-3.5,0-5.5-2.5-5.5-5.7c0-3.4,2.2-5.7,5.5-5.7
			c3,0,4.7,1.6,4.9,4.3H69.9L69.9,6.8z"/>
		<path fill-rule="evenodd" clip-rule="evenodd" fill="#6D7988" d="M78,5.3h1.6c1.3,0,1.7,0.4,1.7,1.1c0,1-0.9,1.1-1.5,1.1H78V5.3
			L78,5.3z M74.7,13.6H78V9.8h1.8c1.3,0,1.4,1.1,1.5,2.1c0,0.6,0.1,1.1,0.3,1.7H85c-0.3-0.5-0.3-1.8-0.4-2.3
			c-0.1-1.4-0.7-2.4-1.6-2.7c1.1-0.4,1.6-1.6,1.6-2.7c0-2.1-1.7-3.1-3.6-3.1h-6.4V13.6L74.7,13.6z"/>
	</g>
</g>
</svg>
